<mxfile host="Electron" modified="2024-04-06T14:31:05.500Z" agent="Mozilla/5.0 (Windows NT 10.0; Win64; x64) AppleWebKit/537.36 (KHTML, like Gecko) draw.io/21.7.5 Chrome/114.0.5735.289 Electron/25.8.1 Safari/537.36" etag="pq7DKfUAC7nyqp6YMbzw" version="21.7.5" type="device">
  <diagram name="第 1 页" id="S8Qg-w5aEko0buZ6O8YT">
    <mxGraphModel dx="964" dy="657" grid="1" gridSize="10" guides="1" tooltips="1" connect="1" arrows="1" fold="1" page="1" pageScale="1" pageWidth="1169" pageHeight="827" math="0" shadow="0">
      <root>
        <mxCell id="0" />
        <mxCell id="1" parent="0" />
        <mxCell id="YW565aTWrkSbloA4kNXs-9" style="edgeStyle=orthogonalEdgeStyle;rounded=0;orthogonalLoop=1;jettySize=auto;html=1;exitX=0.5;exitY=1;exitDx=0;exitDy=0;entryX=0.5;entryY=0;entryDx=0;entryDy=0;entryPerimeter=0;" parent="1" source="YW565aTWrkSbloA4kNXs-1" edge="1">
          <mxGeometry relative="1" as="geometry">
            <mxPoint x="140" y="280" as="targetPoint" />
          </mxGeometry>
        </mxCell>
        <mxCell id="YW565aTWrkSbloA4kNXs-1" value="进入聊天界面" style="rounded=0;whiteSpace=wrap;html=1;" parent="1" vertex="1">
          <mxGeometry x="80" y="190" width="120" height="60" as="geometry" />
        </mxCell>
        <mxCell id="YW565aTWrkSbloA4kNXs-4" style="edgeStyle=orthogonalEdgeStyle;rounded=0;orthogonalLoop=1;jettySize=auto;html=1;exitX=0.5;exitY=1;exitDx=0;exitDy=0;exitPerimeter=0;entryX=0.5;entryY=0;entryDx=0;entryDy=0;" parent="1" source="YW565aTWrkSbloA4kNXs-3" target="YW565aTWrkSbloA4kNXs-1" edge="1">
          <mxGeometry relative="1" as="geometry" />
        </mxCell>
        <mxCell id="YW565aTWrkSbloA4kNXs-3" value="选择对应医生/病人的聊天框" style="strokeWidth=2;html=1;shape=mxgraph.flowchart.terminator;whiteSpace=wrap;" parent="1" vertex="1">
          <mxGeometry x="90" y="110" width="100" height="60" as="geometry" />
        </mxCell>
        <mxCell id="YW565aTWrkSbloA4kNXs-20" style="edgeStyle=orthogonalEdgeStyle;rounded=0;orthogonalLoop=1;jettySize=auto;html=1;exitX=0.5;exitY=1;exitDx=0;exitDy=0;exitPerimeter=0;" parent="1" source="YW565aTWrkSbloA4kNXs-7" edge="1">
          <mxGeometry relative="1" as="geometry">
            <mxPoint x="480" y="490" as="targetPoint" />
          </mxGeometry>
        </mxCell>
        <mxCell id="YW565aTWrkSbloA4kNXs-21" value="文本、图片、视频、文档、意见反馈等" style="edgeLabel;html=1;align=center;verticalAlign=middle;resizable=0;points=[];" parent="YW565aTWrkSbloA4kNXs-20" vertex="1" connectable="0">
          <mxGeometry x="-0.1288" y="4" relative="1" as="geometry">
            <mxPoint as="offset" />
          </mxGeometry>
        </mxCell>
        <mxCell id="YW565aTWrkSbloA4kNXs-7" value="信息类型？" style="strokeWidth=2;html=1;shape=mxgraph.flowchart.decision;whiteSpace=wrap;" parent="1" vertex="1">
          <mxGeometry x="429" y="340" width="100" height="100" as="geometry" />
        </mxCell>
        <mxCell id="YW565aTWrkSbloA4kNXs-12" style="edgeStyle=orthogonalEdgeStyle;rounded=0;orthogonalLoop=1;jettySize=auto;html=1;exitX=0.5;exitY=1;exitDx=0;exitDy=0;entryX=0.5;entryY=0;entryDx=0;entryDy=0;entryPerimeter=0;" parent="1" source="YW565aTWrkSbloA4kNXs-10" target="YW565aTWrkSbloA4kNXs-11" edge="1">
          <mxGeometry relative="1" as="geometry" />
        </mxCell>
        <mxCell id="YW565aTWrkSbloA4kNXs-15" style="edgeStyle=orthogonalEdgeStyle;rounded=0;orthogonalLoop=1;jettySize=auto;html=1;exitX=1;exitY=0.5;exitDx=0;exitDy=0;entryX=0.5;entryY=0;entryDx=0;entryDy=0;entryPerimeter=0;" parent="1" source="YW565aTWrkSbloA4kNXs-10" target="YW565aTWrkSbloA4kNXs-7" edge="1">
          <mxGeometry relative="1" as="geometry" />
        </mxCell>
        <mxCell id="YW565aTWrkSbloA4kNXs-16" value="用户选择发送消息" style="edgeLabel;html=1;align=center;verticalAlign=middle;resizable=0;points=[];" parent="YW565aTWrkSbloA4kNXs-15" vertex="1" connectable="0">
          <mxGeometry x="-0.2016" y="3" relative="1" as="geometry">
            <mxPoint y="-17" as="offset" />
          </mxGeometry>
        </mxCell>
        <mxCell id="YW565aTWrkSbloA4kNXs-10" value="等待" style="rounded=0;whiteSpace=wrap;html=1;" parent="1" vertex="1">
          <mxGeometry x="80" y="280" width="120" height="60" as="geometry" />
        </mxCell>
        <mxCell id="YW565aTWrkSbloA4kNXs-13" style="edgeStyle=orthogonalEdgeStyle;rounded=0;orthogonalLoop=1;jettySize=auto;html=1;exitX=0;exitY=0.5;exitDx=0;exitDy=0;exitPerimeter=0;entryX=0;entryY=0.5;entryDx=0;entryDy=0;" parent="1" source="YW565aTWrkSbloA4kNXs-11" target="YW565aTWrkSbloA4kNXs-10" edge="1">
          <mxGeometry relative="1" as="geometry" />
        </mxCell>
        <mxCell id="YW565aTWrkSbloA4kNXs-14" value="否" style="edgeLabel;html=1;align=center;verticalAlign=middle;resizable=0;points=[];" parent="YW565aTWrkSbloA4kNXs-13" vertex="1" connectable="0">
          <mxGeometry x="0.24" y="3" relative="1" as="geometry">
            <mxPoint x="-7" y="13" as="offset" />
          </mxGeometry>
        </mxCell>
        <mxCell id="YW565aTWrkSbloA4kNXs-18" style="edgeStyle=orthogonalEdgeStyle;rounded=0;orthogonalLoop=1;jettySize=auto;html=1;exitX=0.5;exitY=1;exitDx=0;exitDy=0;exitPerimeter=0;entryX=0;entryY=0.5;entryDx=0;entryDy=0;entryPerimeter=0;" parent="1" source="YW565aTWrkSbloA4kNXs-11" target="YW565aTWrkSbloA4kNXs-17" edge="1">
          <mxGeometry relative="1" as="geometry" />
        </mxCell>
        <mxCell id="YW565aTWrkSbloA4kNXs-19" value="是" style="edgeLabel;html=1;align=center;verticalAlign=middle;resizable=0;points=[];" parent="YW565aTWrkSbloA4kNXs-18" vertex="1" connectable="0">
          <mxGeometry x="-0.3455" y="-3" relative="1" as="geometry">
            <mxPoint x="-7" y="4" as="offset" />
          </mxGeometry>
        </mxCell>
        <mxCell id="YW565aTWrkSbloA4kNXs-11" value="接收到服务器消息？" style="strokeWidth=2;html=1;shape=mxgraph.flowchart.decision;whiteSpace=wrap;" parent="1" vertex="1">
          <mxGeometry x="90" y="470" width="100" height="100" as="geometry" />
        </mxCell>
        <mxCell id="YW565aTWrkSbloA4kNXs-17" value="显示消息" style="strokeWidth=2;html=1;shape=mxgraph.flowchart.display;whiteSpace=wrap;" parent="1" vertex="1">
          <mxGeometry x="160" y="630" width="100" height="60" as="geometry" />
        </mxCell>
        <mxCell id="YW565aTWrkSbloA4kNXs-22" value="数据库" style="strokeWidth=2;html=1;shape=mxgraph.flowchart.database;whiteSpace=wrap;" parent="1" vertex="1">
          <mxGeometry x="280" y="490" width="60" height="60" as="geometry" />
        </mxCell>
        <mxCell id="YW565aTWrkSbloA4kNXs-23" value="" style="verticalLabelPosition=bottom;verticalAlign=top;html=1;strokeWidth=2;shape=mxgraph.arrows2.arrow;dy=0.6;dx=40;notch=0;rotation=-180;" parent="1" vertex="1">
          <mxGeometry x="200" y="505" width="60" height="30" as="geometry" />
        </mxCell>
        <mxCell id="YW565aTWrkSbloA4kNXs-24" value="发送至服务器" style="strokeWidth=2;html=1;shape=mxgraph.flowchart.terminator;whiteSpace=wrap;" parent="1" vertex="1">
          <mxGeometry x="430" y="490" width="100" height="60" as="geometry" />
        </mxCell>
        <mxCell id="YW565aTWrkSbloA4kNXs-25" value="" style="verticalLabelPosition=bottom;verticalAlign=top;html=1;strokeWidth=2;shape=mxgraph.arrows2.arrow;dy=0.6;dx=40;notch=0;rotation=-180;" parent="1" vertex="1">
          <mxGeometry x="360" y="505" width="60" height="30" as="geometry" />
        </mxCell>
        <mxCell id="YW565aTWrkSbloA4kNXs-32" style="edgeStyle=orthogonalEdgeStyle;rounded=0;orthogonalLoop=1;jettySize=auto;html=1;exitX=0.5;exitY=1;exitDx=0;exitDy=0;exitPerimeter=0;entryX=0.5;entryY=0;entryDx=0;entryDy=0;" parent="1" source="YW565aTWrkSbloA4kNXs-26" target="YW565aTWrkSbloA4kNXs-28" edge="1">
          <mxGeometry relative="1" as="geometry" />
        </mxCell>
        <mxCell id="YW565aTWrkSbloA4kNXs-26" value="启动服务器" style="strokeWidth=2;html=1;shape=mxgraph.flowchart.terminator;whiteSpace=wrap;" parent="1" vertex="1">
          <mxGeometry x="710" y="140" width="100" height="60" as="geometry" />
        </mxCell>
        <mxCell id="YW565aTWrkSbloA4kNXs-31" style="edgeStyle=orthogonalEdgeStyle;rounded=0;orthogonalLoop=1;jettySize=auto;html=1;exitX=0.5;exitY=1;exitDx=0;exitDy=0;entryX=0.5;entryY=0;entryDx=0;entryDy=0;" parent="1" source="YW565aTWrkSbloA4kNXs-28" target="YW565aTWrkSbloA4kNXs-30" edge="1">
          <mxGeometry relative="1" as="geometry" />
        </mxCell>
        <mxCell id="YW565aTWrkSbloA4kNXs-28" value="等待" style="rounded=0;whiteSpace=wrap;html=1;" parent="1" vertex="1">
          <mxGeometry x="700" y="240" width="120" height="60" as="geometry" />
        </mxCell>
        <mxCell id="YW565aTWrkSbloA4kNXs-33" style="edgeStyle=orthogonalEdgeStyle;rounded=0;orthogonalLoop=1;jettySize=auto;html=1;exitX=0;exitY=0.5;exitDx=0;exitDy=0;entryX=0;entryY=0.5;entryDx=0;entryDy=0;" parent="1" source="YW565aTWrkSbloA4kNXs-30" target="YW565aTWrkSbloA4kNXs-28" edge="1">
          <mxGeometry relative="1" as="geometry" />
        </mxCell>
        <mxCell id="YW565aTWrkSbloA4kNXs-34" value="否" style="edgeLabel;html=1;align=center;verticalAlign=middle;resizable=0;points=[];" parent="YW565aTWrkSbloA4kNXs-33" vertex="1" connectable="0">
          <mxGeometry x="0.1956" y="2" relative="1" as="geometry">
            <mxPoint x="-18" as="offset" />
          </mxGeometry>
        </mxCell>
        <mxCell id="YW565aTWrkSbloA4kNXs-35" style="edgeStyle=orthogonalEdgeStyle;rounded=0;orthogonalLoop=1;jettySize=auto;html=1;exitX=0.5;exitY=1;exitDx=0;exitDy=0;entryX=0.5;entryY=0;entryDx=0;entryDy=0;" parent="1" source="YW565aTWrkSbloA4kNXs-30" target="YW565aTWrkSbloA4kNXs-37" edge="1">
          <mxGeometry relative="1" as="geometry">
            <mxPoint x="759.8" y="490" as="targetPoint" />
          </mxGeometry>
        </mxCell>
        <mxCell id="YW565aTWrkSbloA4kNXs-36" value="是" style="edgeLabel;html=1;align=center;verticalAlign=middle;resizable=0;points=[];" parent="YW565aTWrkSbloA4kNXs-35" vertex="1" connectable="0">
          <mxGeometry x="-0.3227" y="1" relative="1" as="geometry">
            <mxPoint x="19" as="offset" />
          </mxGeometry>
        </mxCell>
        <mxCell id="YW565aTWrkSbloA4kNXs-30" value="有用户发送新消息？" style="rhombus;whiteSpace=wrap;html=1;" parent="1" vertex="1">
          <mxGeometry x="720" y="350" width="80" height="80" as="geometry" />
        </mxCell>
        <mxCell id="YW565aTWrkSbloA4kNXs-40" style="edgeStyle=orthogonalEdgeStyle;rounded=0;orthogonalLoop=1;jettySize=auto;html=1;exitX=0.5;exitY=1;exitDx=0;exitDy=0;entryX=0.5;entryY=0;entryDx=0;entryDy=0;" parent="1" source="YW565aTWrkSbloA4kNXs-37" target="YW565aTWrkSbloA4kNXs-39" edge="1">
          <mxGeometry relative="1" as="geometry" />
        </mxCell>
        <mxCell id="YW565aTWrkSbloA4kNXs-37" value="将消息写入数据库" style="rounded=0;whiteSpace=wrap;html=1;" parent="1" vertex="1">
          <mxGeometry x="700" y="470" width="120" height="60" as="geometry" />
        </mxCell>
        <mxCell id="YW565aTWrkSbloA4kNXs-41" style="edgeStyle=orthogonalEdgeStyle;rounded=0;orthogonalLoop=1;jettySize=auto;html=1;exitX=0.5;exitY=1;exitDx=0;exitDy=0;entryX=1;entryY=0.5;entryDx=0;entryDy=0;" parent="1" source="YW565aTWrkSbloA4kNXs-39" target="YW565aTWrkSbloA4kNXs-28" edge="1">
          <mxGeometry relative="1" as="geometry">
            <Array as="points">
              <mxPoint x="760" y="660" />
              <mxPoint x="840" y="660" />
              <mxPoint x="840" y="270" />
            </Array>
          </mxGeometry>
        </mxCell>
        <mxCell id="YW565aTWrkSbloA4kNXs-39" value="根据群聊ID将消息转发给对应用户" style="rounded=0;whiteSpace=wrap;html=1;" parent="1" vertex="1">
          <mxGeometry x="700" y="580" width="120" height="60" as="geometry" />
        </mxCell>
        <mxCell id="eJoyKX_nqxEXHr9cuUBc-1" value="客户端&lt;br&gt;" style="text;html=1;align=center;verticalAlign=middle;resizable=0;points=[];autosize=1;strokeColor=none;fillColor=none;" vertex="1" parent="1">
          <mxGeometry x="150" y="738" width="60" height="30" as="geometry" />
        </mxCell>
        <mxCell id="eJoyKX_nqxEXHr9cuUBc-3" value="服务器端" style="text;html=1;strokeColor=none;fillColor=none;align=center;verticalAlign=middle;whiteSpace=wrap;rounded=0;" vertex="1" parent="1">
          <mxGeometry x="740" y="730" width="60" height="30" as="geometry" />
        </mxCell>
      </root>
    </mxGraphModel>
  </diagram>
</mxfile>
